<svg width="513" height="512" viewBox="0 0 513 512" fill="none" xmlns="http://www.w3.org/2000/svg">
<rect x="31.5312" y="31.166" width="449.822" height="449.822" rx="30" fill="black"/>
<rect x="94.8086" y="31.166" width="304.008" height="55.4826" fill="#29AED9"/>
<path d="M198.896 197.155L123.238 147.404L186.516 87.5657L125.76 31.166H378.183L335.31 87.5657L360.53 153.595L297.481 201.511L323.388 247.594L375.203 303.765L288.081 371.169L209.672 478.007L218.613 384.925L254.379 319.584L155.565 253.784L198.896 197.155Z" fill="white"/>
<path d="M322.471 445.988C322.471 446.744 322.427 447.482 322.339 448.203C322.251 448.924 322.058 449.565 321.759 450.128C321.478 450.69 321.064 451.147 320.52 451.499C319.992 451.833 319.271 452 318.357 452C317.461 452 316.749 451.833 316.222 451.499C315.694 451.147 315.29 450.69 315.009 450.128C314.728 449.565 314.543 448.924 314.455 448.203C314.385 447.482 314.35 446.744 314.35 445.988V435.705C314.35 435.213 314.323 434.729 314.271 434.255C314.235 433.78 314.139 433.367 313.98 433.016C313.822 432.646 313.585 432.356 313.269 432.146C312.97 431.917 312.557 431.803 312.029 431.803C311.309 431.803 310.729 432.04 310.289 432.515C309.85 432.989 309.498 433.64 309.234 434.466C308.988 435.292 308.821 436.268 308.733 437.393C308.646 438.5 308.602 439.695 308.602 440.979V445.988C308.602 446.744 308.558 447.482 308.47 448.203C308.382 448.924 308.188 449.565 307.89 450.128C307.608 450.69 307.195 451.147 306.65 451.499C306.123 451.833 305.402 452 304.488 452C303.592 452 302.88 451.833 302.353 451.499C301.825 451.147 301.421 450.69 301.14 450.128C300.858 449.565 300.674 448.924 300.586 448.203C300.516 447.482 300.48 446.744 300.48 445.988V431.592C300.48 430.836 300.507 430.106 300.56 429.403C300.612 428.683 300.771 428.05 301.034 427.505C301.298 426.942 301.693 426.494 302.221 426.16C302.766 425.809 303.521 425.633 304.488 425.633C305.455 425.633 306.211 425.8 306.756 426.134C307.301 426.45 307.705 426.837 307.969 427.294C308.25 427.751 308.426 428.234 308.496 428.744C308.566 429.254 308.602 429.693 308.602 430.062C308.742 429.553 308.962 429.034 309.261 428.507C309.56 427.979 309.938 427.505 310.395 427.083C310.869 426.661 311.432 426.318 312.082 426.055C312.732 425.773 313.488 425.633 314.35 425.633C315.316 425.633 316.283 425.791 317.25 426.107C318.217 426.424 319.087 426.951 319.86 427.689C320.634 428.428 321.258 429.395 321.732 430.59C322.225 431.785 322.471 433.262 322.471 435.02V445.988ZM329.59 431.539C329.59 430.801 329.625 430.08 329.695 429.377C329.783 428.674 329.968 428.05 330.249 427.505C330.53 426.942 330.935 426.494 331.462 426.16C331.989 425.809 332.701 425.633 333.598 425.633C334.494 425.633 335.206 425.809 335.733 426.16C336.261 426.494 336.665 426.942 336.946 427.505C337.228 428.05 337.403 428.674 337.474 429.377C337.562 430.08 337.605 430.801 337.605 431.539V446.094C337.605 446.832 337.562 447.562 337.474 448.282C337.403 448.985 337.228 449.618 336.946 450.181C336.665 450.726 336.261 451.165 335.733 451.499C335.206 451.833 334.494 452 333.598 452C332.701 452 331.989 451.833 331.462 451.499C330.935 451.165 330.53 450.726 330.249 450.181C329.968 449.618 329.783 448.985 329.695 448.282C329.625 447.562 329.59 446.832 329.59 446.094V431.539ZM337.658 419.094C337.658 420.447 337.307 421.458 336.604 422.126C335.9 422.776 334.916 423.102 333.65 423.102C332.385 423.102 331.4 422.776 330.697 422.126C329.994 421.458 329.643 420.447 329.643 419.094C329.643 417.688 329.994 416.668 330.697 416.035C331.4 415.402 332.385 415.086 333.65 415.086C335.004 415.086 336.006 415.402 336.656 416.035C337.324 416.668 337.658 417.688 337.658 419.094ZM366.346 452.791C366.346 454.373 366.126 455.709 365.687 456.799C365.265 457.889 364.72 458.794 364.052 459.515C363.384 460.235 362.637 460.798 361.811 461.202C361.002 461.606 360.202 461.905 359.411 462.099C358.638 462.31 357.926 462.433 357.275 462.468C356.625 462.521 356.133 462.547 355.799 462.547C354.551 462.547 353.303 462.459 352.055 462.283C350.807 462.107 349.664 461.782 348.627 461.308C347.607 460.833 346.755 460.191 346.069 459.383C345.401 458.574 345.023 457.537 344.936 456.271C344.936 456.061 344.971 455.823 345.041 455.56C345.111 455.296 345.27 455.041 345.516 454.795C345.762 454.566 346.131 454.364 346.623 454.188C347.115 454.03 347.783 453.951 348.627 453.951C349.646 453.951 350.429 454.03 350.974 454.188C351.519 454.364 351.923 454.566 352.187 454.795C352.45 455.041 352.617 455.296 352.688 455.56C352.775 455.841 352.863 456.096 352.951 456.324C353.092 456.693 353.364 456.948 353.769 457.089C354.19 457.247 354.762 457.326 355.482 457.326C356.133 457.326 356.643 457.177 357.012 456.878C357.398 456.579 357.688 456.219 357.882 455.797C358.075 455.393 358.198 454.971 358.251 454.531C358.304 454.109 358.33 453.758 358.33 453.477V447.57C358.172 448.098 357.943 448.625 357.645 449.152C357.363 449.68 356.994 450.154 356.537 450.576C356.08 450.998 355.526 451.341 354.876 451.604C354.243 451.868 353.496 452 352.635 452C351.668 452 350.701 451.842 349.734 451.525C348.768 451.209 347.889 450.69 347.098 449.97C346.324 449.231 345.691 448.265 345.199 447.069C344.707 445.874 344.461 444.389 344.461 442.613V434.967C344.461 433.227 344.707 431.768 345.199 430.59C345.691 429.395 346.324 428.428 347.098 427.689C347.889 426.951 348.768 426.424 349.734 426.107C350.701 425.791 351.668 425.633 352.635 425.633C353.496 425.633 354.243 425.773 354.876 426.055C355.526 426.318 356.08 426.661 356.537 427.083C356.994 427.505 357.363 427.979 357.645 428.507C357.943 429.034 358.172 429.553 358.33 430.062C358.33 429.711 358.356 429.28 358.409 428.771C358.479 428.261 358.646 427.777 358.91 427.32C359.174 426.846 359.578 426.45 360.123 426.134C360.668 425.8 361.424 425.633 362.391 425.633C363.34 425.633 364.078 425.809 364.605 426.16C365.133 426.494 365.528 426.942 365.792 427.505C366.056 428.067 366.214 428.709 366.267 429.43C366.319 430.133 366.346 430.854 366.346 431.592V452.791ZM352.635 442.033C352.635 442.49 352.652 442.947 352.688 443.404C352.723 443.861 352.819 444.274 352.978 444.644C353.136 444.995 353.364 445.285 353.663 445.514C353.979 445.725 354.41 445.83 354.955 445.83C355.641 445.83 356.203 445.61 356.643 445.171C357.082 444.731 357.425 444.195 357.671 443.562C357.917 442.912 358.084 442.235 358.172 441.532C358.277 440.812 358.33 440.17 358.33 439.607C358.312 438.271 358.251 437.111 358.146 436.127C358.058 435.143 357.891 434.334 357.645 433.701C357.398 433.051 357.056 432.576 356.616 432.277C356.194 431.961 355.641 431.803 354.955 431.803C354.41 431.803 353.979 431.917 353.663 432.146C353.364 432.356 353.136 432.646 352.978 433.016C352.819 433.385 352.723 433.798 352.688 434.255C352.652 434.712 352.635 435.178 352.635 435.652V442.033ZM394.717 446.041C394.717 446.779 394.673 447.509 394.585 448.229C394.515 448.933 394.339 449.565 394.058 450.128C393.794 450.69 393.398 451.147 392.871 451.499C392.344 451.833 391.623 452 390.709 452C389.795 452 389.065 451.833 388.521 451.499C387.993 451.147 387.58 450.69 387.281 450.128C387 449.565 386.815 448.933 386.728 448.229C386.64 447.509 386.596 446.779 386.596 446.041V435.652C386.596 435.195 386.578 434.747 386.543 434.308C386.508 433.851 386.411 433.446 386.253 433.095C386.095 432.743 385.857 432.462 385.541 432.251C385.242 432.022 384.82 431.908 384.275 431.908C383.572 431.908 383.001 432.146 382.562 432.62C382.122 433.077 381.771 433.719 381.507 434.545C381.261 435.354 381.085 436.32 380.979 437.445C380.892 438.553 380.848 439.748 380.848 441.031V446.041C380.848 446.779 380.804 447.509 380.716 448.229C380.646 448.933 380.47 449.565 380.188 450.128C379.907 450.69 379.494 451.147 378.949 451.499C378.404 451.833 377.666 452 376.734 452C375.82 452 375.1 451.833 374.572 451.499C374.045 451.147 373.641 450.69 373.359 450.128C373.096 449.565 372.92 448.933 372.832 448.229C372.762 447.509 372.727 446.779 372.727 446.041V421.045C372.727 420.307 372.762 419.586 372.832 418.883C372.92 418.162 373.096 417.521 373.359 416.958C373.641 416.396 374.045 415.947 374.572 415.613C375.1 415.262 375.82 415.086 376.734 415.086C377.666 415.086 378.404 415.262 378.949 415.613C379.494 415.947 379.907 416.396 380.188 416.958C380.47 417.521 380.646 418.162 380.716 418.883C380.804 419.586 380.848 420.307 380.848 421.045V430.062C381.006 429.553 381.234 429.034 381.533 428.507C381.832 427.979 382.219 427.505 382.693 427.083C383.168 426.661 383.722 426.318 384.354 426.055C385.005 425.773 385.752 425.633 386.596 425.633C387.562 425.633 388.529 425.8 389.496 426.134C390.48 426.45 391.351 426.978 392.106 427.716C392.88 428.454 393.504 429.43 393.979 430.643C394.471 431.838 394.717 433.314 394.717 435.072V446.041ZM403.787 425.633V420.992C403.787 420.254 403.822 419.533 403.893 418.83C403.98 418.127 404.165 417.503 404.446 416.958C404.728 416.396 405.132 415.947 405.659 415.613C406.187 415.262 406.898 415.086 407.795 415.086C408.674 415.086 409.377 415.262 409.904 415.613C410.432 415.947 410.827 416.396 411.091 416.958C411.372 417.503 411.548 418.127 411.618 418.83C411.706 419.533 411.75 420.254 411.75 420.992V425.633H413.912C414.369 425.633 414.826 425.659 415.283 425.712C415.74 425.747 416.145 425.87 416.496 426.081C416.865 426.292 417.155 426.608 417.366 427.03C417.595 427.452 417.709 428.041 417.709 428.797C417.709 429.518 417.595 430.089 417.366 430.511C417.155 430.933 416.865 431.249 416.496 431.46C416.145 431.671 415.74 431.812 415.283 431.882C414.826 431.935 414.369 431.961 413.912 431.961H411.75V441.189C411.75 441.541 411.759 441.919 411.776 442.323C411.812 442.71 411.908 443.07 412.066 443.404C412.225 443.738 412.462 444.02 412.778 444.248C413.095 444.459 413.543 444.564 414.123 444.564C414.756 444.564 415.292 444.617 415.731 444.723C416.188 444.811 416.558 444.978 416.839 445.224C417.138 445.47 417.357 445.812 417.498 446.252C417.639 446.691 417.709 447.254 417.709 447.939C417.709 448.643 417.542 449.249 417.208 449.759C416.892 450.269 416.461 450.69 415.916 451.024C415.371 451.358 414.738 451.604 414.018 451.763C413.297 451.921 412.541 452 411.75 452C410.502 452 409.43 451.868 408.533 451.604C407.654 451.341 406.916 450.972 406.318 450.497C405.738 450.005 405.272 449.425 404.921 448.757C404.587 448.071 404.332 447.307 404.156 446.463C403.998 445.619 403.893 444.714 403.84 443.747C403.805 442.763 403.787 441.734 403.787 440.662V431.961H402.311C401.854 431.961 401.396 431.935 400.939 431.882C400.5 431.812 400.104 431.671 399.753 431.46C399.401 431.249 399.111 430.933 398.883 430.511C398.672 430.089 398.566 429.518 398.566 428.797C398.566 428.041 398.672 427.452 398.883 427.03C399.111 426.608 399.401 426.292 399.753 426.081C400.104 425.87 400.5 425.747 400.939 425.712C401.396 425.659 401.854 425.633 402.311 425.633H403.787ZM423.615 420.939C423.615 420.201 423.65 419.48 423.721 418.777C423.809 418.074 423.993 417.45 424.274 416.905C424.556 416.36 424.96 415.921 425.487 415.587C426.015 415.253 426.727 415.086 427.623 415.086C428.537 415.086 429.258 415.253 429.785 415.587C430.312 415.921 430.708 416.36 430.972 416.905C431.253 417.45 431.429 418.074 431.499 418.777C431.587 419.48 431.631 420.201 431.631 420.939V446.094C431.631 446.832 431.587 447.562 431.499 448.282C431.429 448.985 431.253 449.618 430.972 450.181C430.708 450.726 430.312 451.165 429.785 451.499C429.258 451.833 428.537 452 427.623 452C426.727 452 426.015 451.833 425.487 451.499C424.96 451.165 424.556 450.726 424.274 450.181C423.993 449.618 423.809 448.985 423.721 448.282C423.65 447.562 423.615 446.832 423.615 446.094V420.939ZM441.439 462.547C439.436 462.547 438.012 462.257 437.168 461.677C436.324 461.114 435.902 460.279 435.902 459.172C435.902 458.627 435.973 458.17 436.113 457.801C436.271 457.432 436.482 457.133 436.746 456.904C437.01 456.676 437.309 456.509 437.643 456.403C437.994 456.315 438.363 456.271 438.75 456.271C439.014 456.271 439.26 456.28 439.488 456.298C439.717 456.315 439.91 456.324 440.068 456.324C440.402 456.324 440.719 456.122 441.018 455.718C441.334 455.331 441.633 454.839 441.914 454.241C442.213 453.644 442.512 453.002 442.811 452.316C443.109 451.631 443.408 450.998 443.707 450.418L443.285 449.363C442.775 448.08 442.239 446.735 441.677 445.329C441.114 443.905 440.552 442.473 439.989 441.031C439.444 439.572 438.899 438.122 438.354 436.681C437.827 435.239 437.344 433.842 436.904 432.488C436.711 431.926 436.544 431.372 436.403 430.827C436.28 430.282 436.219 429.746 436.219 429.219C436.219 428.709 436.324 428.234 436.535 427.795C436.746 427.355 437.036 426.978 437.405 426.661C437.774 426.345 438.196 426.099 438.671 425.923C439.163 425.729 439.682 425.633 440.227 425.633C440.719 425.633 441.167 425.738 441.571 425.949C441.993 426.16 442.362 426.45 442.679 426.819C443.013 427.188 443.303 427.61 443.549 428.085C443.795 428.56 444.006 429.061 444.182 429.588L447.715 440.715L451.09 429.588C451.248 429.096 451.45 428.604 451.696 428.111C451.942 427.619 452.232 427.188 452.566 426.819C452.9 426.433 453.278 426.125 453.7 425.896C454.122 425.65 454.588 425.527 455.098 425.527C455.607 425.527 456.091 425.624 456.548 425.817C457.022 426.011 457.427 426.283 457.761 426.635C458.112 426.969 458.385 427.373 458.578 427.848C458.789 428.322 458.895 428.832 458.895 429.377C458.895 429.904 458.824 430.432 458.684 430.959C458.561 431.469 458.402 431.979 458.209 432.488L451.881 449.258C451.512 450.207 451.107 451.191 450.668 452.211C450.246 453.248 449.78 454.259 449.271 455.243C448.761 456.228 448.216 457.159 447.636 458.038C447.056 458.917 446.44 459.69 445.79 460.358C445.14 461.026 444.445 461.554 443.707 461.94C442.986 462.345 442.23 462.547 441.439 462.547Z" fill="#757AFF"/>
</svg>
