<svg width="512" height="512" viewBox="0 0 512 512" fill="none" xmlns="http://www.w3.org/2000/svg">
<rect x="31.1641" y="31.166" width="449.822" height="449.822" rx="30" fill="black"/>
<rect x="94.4414" y="31.166" width="304.008" height="55.4826" fill="#29AED9"/>
<path d="M198.529 197.155L122.871 147.404L186.149 87.5657L125.393 31.166H377.816L334.943 87.5657L360.162 153.595L297.114 201.511L323.021 247.594L374.836 303.765L287.714 371.169L209.305 478.007L218.246 384.925L254.012 319.584L155.198 253.784L198.529 197.155Z" fill="white"/>
<path d="M339.75 410.375C339.75 409.479 339.792 408.604 339.875 407.75C339.979 406.875 340.188 406.115 340.5 405.469C340.833 404.802 341.312 404.271 341.938 403.875C342.562 403.458 343.396 403.25 344.438 403.25C345.521 403.25 346.385 403.458 347.031 403.875C347.677 404.271 348.156 404.802 348.469 405.469C348.802 406.115 349.01 406.875 349.094 407.75C349.198 408.604 349.25 409.479 349.25 410.375V421.062C349.438 420.438 349.698 419.812 350.031 419.188C350.385 418.562 350.833 418 351.375 417.5C351.917 417 352.562 416.594 353.312 416.281C354.083 415.969 354.979 415.812 356 415.812C357.146 415.812 358.292 416 359.438 416.375C360.583 416.75 361.615 417.375 362.531 418.25C363.448 419.104 364.188 420.24 364.75 421.656C365.333 423.052 365.625 424.792 365.625 426.875V435.938C365.625 438 365.333 439.74 364.75 441.156C364.188 442.552 363.448 443.688 362.531 444.562C361.615 445.438 360.583 446.062 359.438 446.438C358.292 446.812 357.146 447 356 447C354.979 447 354.083 446.844 353.312 446.531C352.562 446.198 351.917 445.781 351.375 445.281C350.833 444.781 350.385 444.219 350.031 443.594C349.698 442.969 349.438 442.354 349.25 441.75C349.25 442.167 349.208 442.677 349.125 443.281C349.062 443.885 348.875 444.469 348.562 445.031C348.25 445.573 347.771 446.042 347.125 446.438C346.479 446.812 345.583 447 344.438 447C343.312 447 342.438 446.802 341.812 446.406C341.188 445.99 340.719 445.448 340.406 444.781C340.094 444.115 339.906 443.365 339.844 442.531C339.781 441.677 339.75 440.812 339.75 439.938V410.375ZM356 427.562C356 427.021 355.979 426.49 355.938 425.969C355.896 425.427 355.781 424.948 355.594 424.531C355.406 424.115 355.125 423.781 354.75 423.531C354.396 423.26 353.896 423.125 353.25 423.125C352.438 423.125 351.771 423.385 351.25 423.906C350.729 424.427 350.323 425.062 350.031 425.812C349.74 426.562 349.531 427.365 349.406 428.219C349.302 429.052 349.25 429.792 349.25 430.438C349.271 432.042 349.333 433.427 349.438 434.594C349.562 435.74 349.771 436.698 350.062 437.469C350.354 438.219 350.75 438.781 351.25 439.156C351.771 439.51 352.438 439.688 353.25 439.688C353.896 439.688 354.396 439.562 354.75 439.312C355.125 439.042 355.406 438.688 355.594 438.25C355.781 437.812 355.896 437.323 355.938 436.781C355.979 436.24 356 435.688 356 435.125V427.562ZM397.812 429.188C397.812 429.521 397.792 429.917 397.75 430.375C397.708 430.812 397.542 431.24 397.25 431.656C396.979 432.052 396.542 432.396 395.938 432.688C395.333 432.979 394.479 433.125 393.375 433.125H380.938V436.125C380.938 436.625 381 437.146 381.125 437.688C381.25 438.229 381.458 438.729 381.75 439.188C382.062 439.646 382.469 440.021 382.969 440.312C383.469 440.604 384.083 440.75 384.812 440.75C385.646 440.75 386.281 440.656 386.719 440.469C387.177 440.26 387.531 440.01 387.781 439.719C388.052 439.427 388.292 439.115 388.5 438.781C388.708 438.448 388.979 438.135 389.312 437.844C389.667 437.552 390.146 437.312 390.75 437.125C391.375 436.917 392.229 436.812 393.312 436.812C393.833 436.812 394.333 436.854 394.812 436.938C395.312 437.021 395.75 437.177 396.125 437.406C396.5 437.635 396.802 437.958 397.031 438.375C397.26 438.771 397.375 439.292 397.375 439.938C397.375 441.292 396.948 442.427 396.094 443.344C395.24 444.24 394.167 444.958 392.875 445.5C391.583 446.042 390.177 446.427 388.656 446.656C387.156 446.885 385.75 447 384.438 447C382.708 446.979 381.062 446.76 379.5 446.344C377.938 445.927 376.552 445.26 375.344 444.344C374.156 443.427 373.208 442.229 372.5 440.75C371.792 439.271 371.438 437.458 371.438 435.312V428C371.438 426.021 371.667 424.344 372.125 422.969C372.604 421.594 373.219 420.448 373.969 419.531C374.719 418.615 375.562 417.906 376.5 417.406C377.438 416.885 378.385 416.5 379.344 416.25C380.302 416 381.208 415.844 382.062 415.781C382.938 415.719 383.688 415.688 384.312 415.688C386.417 415.688 388.208 415.875 389.688 416.25C391.188 416.625 392.438 417.115 393.438 417.719C394.438 418.323 395.229 419.021 395.812 419.812C396.396 420.604 396.833 421.427 397.125 422.281C397.417 423.115 397.604 423.969 397.688 424.844C397.771 425.698 397.812 426.5 397.812 427.25V429.188ZM380.938 428.438H388.75C388.75 427.458 388.719 426.594 388.656 425.844C388.615 425.073 388.458 424.427 388.188 423.906C387.938 423.385 387.531 422.99 386.969 422.719C386.427 422.448 385.646 422.312 384.625 422.312C383.771 422.312 383.094 422.448 382.594 422.719C382.115 422.99 381.75 423.333 381.5 423.75C381.25 424.146 381.094 424.573 381.031 425.031C380.969 425.49 380.938 425.896 380.938 426.25V428.438ZM408.5 415.75V410.25C408.5 409.375 408.542 408.521 408.625 407.688C408.729 406.854 408.948 406.115 409.281 405.469C409.615 404.802 410.094 404.271 410.719 403.875C411.344 403.458 412.188 403.25 413.25 403.25C414.292 403.25 415.125 403.458 415.75 403.875C416.375 404.271 416.844 404.802 417.156 405.469C417.49 406.115 417.698 406.854 417.781 407.688C417.885 408.521 417.938 409.375 417.938 410.25V415.75H420.5C421.042 415.75 421.583 415.781 422.125 415.844C422.667 415.885 423.146 416.031 423.562 416.281C424 416.531 424.344 416.906 424.594 417.406C424.865 417.906 425 418.604 425 419.5C425 420.354 424.865 421.031 424.594 421.531C424.344 422.031 424 422.406 423.562 422.656C423.146 422.906 422.667 423.073 422.125 423.156C421.583 423.219 421.042 423.25 420.5 423.25H417.938V434.188C417.938 434.604 417.948 435.052 417.969 435.531C418.01 435.99 418.125 436.417 418.312 436.812C418.5 437.208 418.781 437.542 419.156 437.812C419.531 438.062 420.062 438.188 420.75 438.188C421.5 438.188 422.135 438.25 422.656 438.375C423.198 438.479 423.635 438.677 423.969 438.969C424.323 439.26 424.583 439.667 424.75 440.188C424.917 440.708 425 441.375 425 442.188C425 443.021 424.802 443.74 424.406 444.344C424.031 444.948 423.521 445.448 422.875 445.844C422.229 446.24 421.479 446.531 420.625 446.719C419.771 446.906 418.875 447 417.938 447C416.458 447 415.188 446.844 414.125 446.531C413.083 446.219 412.208 445.781 411.5 445.219C410.812 444.635 410.26 443.948 409.844 443.156C409.448 442.344 409.146 441.438 408.938 440.438C408.75 439.438 408.625 438.365 408.562 437.219C408.521 436.052 408.5 434.833 408.5 433.562V423.25H406.75C406.208 423.25 405.667 423.219 405.125 423.156C404.604 423.073 404.135 422.906 403.719 422.656C403.302 422.406 402.958 422.031 402.688 421.531C402.438 421.031 402.312 420.354 402.312 419.5C402.312 418.604 402.438 417.906 402.688 417.406C402.958 416.906 403.302 416.531 403.719 416.281C404.135 416.031 404.604 415.885 405.125 415.844C405.667 415.781 406.208 415.75 406.75 415.75H408.5ZM456.125 439.938C456.125 440.812 456.094 441.677 456.031 442.531C455.969 443.365 455.781 444.115 455.469 444.781C455.156 445.448 454.688 445.99 454.062 446.406C453.438 446.802 452.562 447 451.438 447C450.292 447 449.396 446.812 448.75 446.438C448.104 446.042 447.625 445.573 447.312 445.031C447 444.469 446.802 443.885 446.719 443.281C446.656 442.677 446.625 442.167 446.625 441.75C446.438 442.354 446.167 442.969 445.812 443.594C445.479 444.219 445.042 444.781 444.5 445.281C443.958 445.781 443.302 446.198 442.531 446.531C441.781 446.844 440.896 447 439.875 447C438.729 447 437.583 446.812 436.438 446.438C435.292 446.062 434.26 445.438 433.344 444.562C432.427 443.688 431.677 442.552 431.094 441.156C430.531 439.74 430.25 438 430.25 435.938V426.875C430.25 424.792 430.531 423.052 431.094 421.656C431.677 420.24 432.427 419.104 433.344 418.25C434.26 417.375 435.292 416.75 436.438 416.375C437.583 416 438.729 415.812 439.875 415.812C440.896 415.812 441.781 415.969 442.531 416.281C443.302 416.594 443.958 417 444.5 417.5C445.042 418 445.479 418.562 445.812 419.188C446.167 419.812 446.438 420.438 446.625 421.062C446.625 420.021 446.771 419.156 447.062 418.469C447.354 417.781 447.729 417.24 448.188 416.844C448.646 416.427 449.156 416.146 449.719 416C450.302 415.833 450.875 415.75 451.438 415.75C452.479 415.75 453.312 415.958 453.938 416.375C454.562 416.771 455.031 417.302 455.344 417.969C455.677 418.615 455.885 419.375 455.969 420.25C456.073 421.104 456.125 421.979 456.125 422.875V439.938ZM439.875 435.125C439.875 435.688 439.896 436.24 439.938 436.781C439.979 437.323 440.094 437.812 440.281 438.25C440.469 438.688 440.74 439.042 441.094 439.312C441.469 439.562 441.979 439.688 442.625 439.688C443.438 439.688 444.094 439.51 444.594 439.156C445.115 438.781 445.521 438.219 445.812 437.469C446.104 436.698 446.302 435.74 446.406 434.594C446.531 433.427 446.604 432.042 446.625 430.438C446.625 429.792 446.562 429.052 446.438 428.219C446.333 427.365 446.135 426.562 445.844 425.812C445.552 425.062 445.146 424.427 444.625 423.906C444.104 423.385 443.438 423.125 442.625 423.125C441.979 423.125 441.469 423.26 441.094 423.531C440.74 423.781 440.469 424.115 440.281 424.531C440.094 424.948 439.979 425.427 439.938 425.969C439.896 426.49 439.875 427.021 439.875 427.562V435.125Z" fill="#2BC53B"/>
</svg>
